<svg width="207" height="32" viewBox="0 0 207 32" fill="none" xmlns="http://www.w3.org/2000/svg">
<g clip-path="url(#clip0_515_380)">
<path d="M37.2798 25.3872V13.8116H35.2104V11.2519H37.3074C37.6523 8.15179 39.9286 6.33154 43.8191 6.33154H45.1711V8.60685H43.35C41.1703 8.60685 40.039 9.20412 40.2046 11.2519H45.1711V13.8116H40.2666V25.3872H37.2798Z" fill="white"/>
<path d="M46.8335 25.3875V11.2522H49.5651V15.0633H49.7582C50.1721 12.788 51.662 10.9678 54.4764 10.9678C57.5805 10.9678 58.96 13.2715 58.96 15.945V17.7795H56.0077V16.528C56.0077 14.5087 55.18 13.5702 53.1382 13.5702C50.7929 13.5702 49.8272 14.9069 49.8272 17.4382V25.3875H46.8335Z" fill="white"/>
<path d="M60.2153 18.3341C60.2153 13.9257 63.278 10.9678 67.8306 10.9678C72.3833 10.9678 75.4736 13.9257 75.4736 18.3341C75.4736 22.6856 72.4109 25.6719 67.8306 25.6719C63.2504 25.6719 60.2153 22.6856 60.2153 18.3341ZM72.5488 18.3341C72.5488 15.3193 71.1692 13.6697 67.8306 13.6697C64.492 13.6697 63.147 15.3193 63.147 18.3341C63.147 21.3488 64.5265 22.9558 67.8375 22.9558C71.1486 22.9558 72.5488 21.3346 72.5488 18.3341Z" fill="white"/>
<path d="M77.6328 25.3875V11.2522H80.3644V15.5184H80.5334C80.8783 13.1578 82.382 10.9678 85.8034 10.9678C88.9075 10.9678 90.6044 12.9302 90.9769 15.6321H91.1424C91.4873 13.2146 93.0462 10.9678 96.5228 10.9678C100.082 10.9678 101.876 13.4564 101.876 16.8836V25.3875H98.9233V17.7084C98.9233 14.9211 97.8472 13.7266 95.1984 13.7266C92.2737 13.7266 91.2252 15.2624 91.2252 18.391V25.3875H88.2729V17.7084C88.2729 14.9211 87.2382 13.7266 84.5721 13.7266C81.6233 13.7266 80.6024 15.2624 80.6024 18.391V25.3875H77.6328Z" fill="white"/>
<path d="M104.111 20.6235V20.5382H107.091V20.7657C107.091 22.6144 108.167 23.2117 111.036 23.2117C113.713 23.2117 114.513 22.6429 114.513 21.3914C114.513 20.2254 113.85 19.8556 111.891 19.5712L108.139 19.0593C105.545 18.7037 103.973 17.5803 103.973 15.2197C103.973 12.7311 106.152 10.9819 110.374 10.9819C114.595 10.9819 117.11 12.7169 117.11 16.0729V16.1582H114.154V15.9876C114.154 14.3096 113.326 13.4279 110.291 13.4279C107.78 13.4279 106.897 13.9967 106.897 15.3334C106.897 16.4427 107.449 16.8408 109.519 17.111L112.692 17.5661C115.947 17.9927 117.441 19.1304 117.441 21.4768C117.441 24.1218 114.899 25.6861 111.036 25.6861C106.621 25.6719 104.111 23.8801 104.111 20.6235Z" fill="white"/>
<path d="M119.038 18.3341C119.038 13.9257 121.99 10.9678 126.515 10.9678C130.63 10.9678 133.637 13.3568 133.637 16.8836V17.168H130.685V16.9973C130.685 14.8073 129.136 13.7266 126.463 13.7266C123.359 13.7266 121.98 15.234 121.98 18.3483C121.98 21.3915 123.359 22.9273 126.463 22.9273C129.136 22.9273 130.685 21.8608 130.685 19.6566V19.4575H133.637V19.7704C133.637 23.2971 130.63 25.6861 126.515 25.6861C121.99 25.6719 119.038 22.6856 119.038 18.3341Z" fill="white"/>
<path d="M135.841 25.3875V11.2522H138.572V15.0633H138.766C139.179 12.788 140.669 10.9678 143.484 10.9678C146.588 10.9678 147.967 13.2715 147.967 15.945V17.7795H145.015V16.528C145.015 14.5087 144.187 13.5702 142.146 13.5702C139.8 13.5702 138.835 14.9069 138.835 17.4382V25.3875H135.841Z" fill="white"/>
<path d="M149.223 21.9745C149.223 19.7846 150.948 18.6469 153.638 18.3341L159.874 17.6515V16.8267C159.874 14.4945 158.88 13.6697 156.259 13.6697C153.721 13.6697 152.465 14.5229 152.465 16.5991V16.7129H149.513V16.5991C149.513 13.3995 152.106 10.9678 156.466 10.9678C160.825 10.9678 162.784 13.4137 162.784 16.7982V25.3875H160.063V21.8608H159.87C159.153 24.2499 156.973 25.6719 153.855 25.6719C151.017 25.6719 149.223 24.3067 149.223 21.9745ZM154.659 23.4677C157.763 23.4677 159.874 22.2732 159.874 19.4859L154.493 20.1116C152.948 20.3107 152.203 20.6805 152.203 21.7897C152.203 22.8989 152.948 23.4677 154.659 23.4677Z" fill="white"/>
<path d="M171.296 25.3873C168.344 25.3873 166.523 24.0505 166.523 20.6091V13.8117H164.202V11.252H166.519V8.15186H169.472V11.252H174.438V13.8117H169.472V20.4385C169.472 22.1734 170.244 22.6285 171.955 22.6285H174.438V25.3873H171.296Z" fill="white"/>
<path d="M175.766 18.3341C175.766 13.9257 178.718 10.9678 183.243 10.9678C187.355 10.9678 190.362 13.3568 190.362 16.8836V17.168H187.41V16.9973C187.41 14.8073 185.865 13.7266 183.188 13.7266C180.084 13.7266 178.705 15.234 178.705 18.3483C178.705 21.3915 180.084 22.9273 183.188 22.9273C185.865 22.9273 187.41 21.8608 187.41 19.6566V19.4575H190.362V19.7704C190.362 23.2971 187.355 25.6861 183.243 25.6861C178.718 25.6719 175.766 22.6856 175.766 18.3341Z" fill="white"/>
<path d="M192.569 25.3872V6.33154H195.549V15.575H195.715C196.184 13.1859 197.867 10.9533 201.371 10.9533C205.165 10.9533 207 13.513 207 16.9544V25.3872H204.048V17.7081C204.048 14.8639 202.806 13.7263 199.964 13.7263C196.708 13.7263 195.549 15.5465 195.549 18.5329V25.3872H192.569Z" fill="white"/>
<path d="M28.1125 21.6435V10.3595C28.1126 9.53122 27.9009 8.71758 27.4989 8.00047C27.0968 7.28335 26.5186 6.68808 25.8224 6.27458L16.3446 0.632536C15.6489 0.218472 14.8596 0.000488281 14.0563 0.000488281C13.2529 0.000488281 12.4636 0.218472 11.7679 0.632536L2.28666 6.27458C1.59133 6.68881 1.01399 7.28434 0.61261 8.00136C0.211232 8.71838 -4.4238e-05 9.53164 6.94781e-09 10.3595V21.6435C-4.4238e-05 22.4714 0.211232 23.2846 0.61261 24.0016C1.01399 24.7187 1.59133 25.3142 2.28666 25.7284L11.7575 31.3705C12.4533 31.7845 13.2425 32.0025 14.0459 32.0025C14.8493 32.0025 15.6385 31.7845 16.3343 31.3705L25.8121 25.7284C26.5102 25.3163 27.0905 24.7216 27.4944 24.0044C27.8983 23.2872 28.1115 22.4728 28.1125 21.6435Z" fill="white"/>
<path d="M19.9866 7.43018H8.11182V10.285H19.9866V7.43018Z" fill="#4083FF"/>
<path d="M19.9934 21.4946H8.11865V24.3494H19.9934V21.4946Z" fill="#4083FF"/>
<path d="M23.2552 16.2382L5.35547 12.7852L4.84601 15.5912L22.7458 19.0442L23.2552 16.2382Z" fill="#4083FF"/>
</g>
<defs>
<clipPath id="clip0_515_380">
<rect width="207" height="32" fill="white"/>
</clipPath>
</defs>
</svg>
